<svg width="50" height="50" viewBox="0 0 50 50" fill="none" xmlns="http://www.w3.org/2000/svg">
<path d="M25.0006 31.25C28.4524 31.25 31.2506 28.4518 31.2506 25C31.2506 21.5482 28.4524 18.75 25.0006 18.75C21.5488 18.75 18.7506 21.5482 18.7506 25C18.7506 28.4518 21.5488 31.25 25.0006 31.25Z" fill="#5968C8"/>
<path d="M48.3443 24.4688C46.5066 19.7151 43.3162 15.6041 39.1674 12.6439C35.0187 9.68368 30.0935 8.00402 25.0006 7.8125C19.9076 8.00402 14.9824 9.68368 10.8337 12.6439C6.68496 15.6041 3.49456 19.7151 1.65681 24.4688C1.53269 24.812 1.53269 25.188 1.65681 25.5312C3.49456 30.2849 6.68496 34.3959 10.8337 37.3561C14.9824 40.3163 19.9076 41.996 25.0006 42.1875C30.0935 41.996 35.0187 40.3163 39.1674 37.3561C43.3162 34.3959 46.5066 30.2849 48.3443 25.5312C48.4684 25.188 48.4684 24.812 48.3443 24.4688ZM25.0006 35.1562C22.9918 35.1562 21.0282 34.5606 19.358 33.4446C17.6879 32.3286 16.3861 30.7424 15.6174 28.8866C14.8487 27.0308 14.6476 24.9887 15.0395 23.0186C15.4313 21.0485 16.3986 19.2388 17.819 17.8184C19.2394 16.3981 21.049 15.4308 23.0192 15.0389C24.9893 14.647 27.0314 14.8481 28.8872 15.6168C30.743 16.3856 32.3292 17.6873 33.4452 19.3575C34.5612 21.0277 35.1568 22.9913 35.1568 25C35.1527 27.6923 34.0813 30.2732 32.1775 32.177C30.2738 34.0808 27.6929 35.1521 25.0006 35.1562Z" fill="#5968C8"/>
</svg>
