<svg width="65" height="48" viewBox="0 0 65 48" fill="none" xmlns="http://www.w3.org/2000/svg">
<path d="M54.4864 4.06344C50.2682 2.17686 45.8055 0.836366 41.2166 0.0773926C40.645 1.0652 39.9771 2.3938 39.5166 3.45077C34.5688 2.73964 29.6666 2.73964 24.8098 3.45077C24.3495 2.39404 23.6666 1.0652 23.0897 0.0773926C18.4962 0.836716 14.0298 2.18062 9.80953 4.07328C1.41154 16.2038 -0.865093 28.0328 0.273098 39.6943C5.8432 43.6702 11.2412 46.0856 16.5482 47.6661C17.8672 45.9324 19.0331 44.0969 20.0339 42.1786C18.1284 41.4852 16.2915 40.6306 14.545 39.6251C15.0046 39.2995 15.4534 38.9601 15.8907 38.6075C26.4741 43.3393 37.9736 43.3393 48.4309 38.6075C48.8701 38.9578 49.3187 39.2971 49.7764 39.6251C48.027 40.6333 46.1866 41.4895 44.2774 42.1836C45.2839 44.1097 46.4477 45.947 47.763 47.6709C53.0751 46.0906 58.4781 43.6753 64.0482 39.6943C65.3839 26.1758 61.7668 14.4554 54.4864 4.06344ZM21.4759 32.5227C18.2987 32.5227 15.6932 29.6875 15.6932 26.2351C15.6932 22.7827 18.2432 19.9428 21.4759 19.9428C24.7088 19.9428 27.3141 22.7777 27.2585 26.2351C27.2636 29.6875 24.7088 32.5227 21.4759 32.5227ZM42.8455 32.5227C39.6683 32.5227 37.063 29.6875 37.063 26.2351C37.063 22.7827 39.6128 19.9428 42.8455 19.9428C46.0784 19.9428 48.6836 22.7777 48.6281 26.2351C48.6281 29.6875 46.0784 32.5227 42.8455 32.5227Z" fill="#5865F2"/>
</svg>
