<svg width="50" height="48" viewBox="0 0 50 48" fill="none" xmlns="http://www.w3.org/2000/svg">
<path d="M50 23.974C50 10.7763 38.807 0.0773926 25 0.0773926C11.193 0.0773926 0 10.7763 0 23.974C0 35.9013 9.14219 45.7876 21.0938 47.5802V30.8816H14.7461V23.974H21.0938V18.7092C21.0938 12.7202 24.8262 9.41199 30.5367 9.41199C33.2719 9.41199 36.1328 9.87872 36.1328 9.87872V15.7595H32.9805C29.8748 15.7595 28.9062 17.6016 28.9062 19.4915V23.974H35.8398L34.7314 30.8816H28.9062V47.5802C40.8578 45.7876 50 35.9015 50 23.974Z" fill="#1877F2"/>
<path d="M34.7314 30.8816L35.8398 23.974H28.9062V19.4915C28.9062 17.6014 29.8748 15.7595 32.9805 15.7595H36.1328V9.87872C36.1328 9.87872 33.2719 9.41199 30.5365 9.41199C24.8262 9.41199 21.0938 12.7202 21.0938 18.7092V23.974H14.7461V30.8816H21.0938V47.5802C22.386 47.7738 23.692 47.8708 25 47.8705C26.308 47.8709 27.614 47.7738 28.9062 47.5802V30.8816H34.7314Z" fill="white"/>
</svg>
