<svg width="42" height="42" viewBox="0 0 42 42" fill="none" xmlns="http://www.w3.org/2000/svg">
<path d="M21 0.16667C25.7713 0.159918 30.3992 1.7977 34.1041 4.80417C34.3381 4.99366 34.5282 5.23161 34.6614 5.50163C34.7945 5.77166 34.8676 6.06733 34.8755 6.3683C34.8834 6.66927 34.826 6.96838 34.7072 7.24503C34.5885 7.52168 34.4111 7.7693 34.1875 7.97084L31.0416 10.8083C30.6843 11.1301 30.2266 11.3184 29.7462 11.3412C29.2659 11.364 28.7924 11.2199 28.4062 10.9333C26.288 9.37646 23.7328 8.52705 21.104 8.50587C18.4753 8.4847 15.9068 9.29284 13.7637 10.8154C11.6207 12.3379 10.0122 14.4974 9.16701 16.9867C8.32183 19.4759 8.28296 22.1683 9.05593 24.6809C9.82891 27.1936 11.3744 29.3985 13.4726 30.9823C15.5708 32.5661 18.1149 33.448 20.7432 33.5028C23.3714 33.5575 25.9501 32.7822 28.1124 31.2871C30.2747 29.792 31.9106 27.6533 32.7875 25.175L32.7895 25.1667H25.1645C24.6546 25.1661 24.1626 24.9785 23.7817 24.6395C23.4009 24.3005 23.1575 23.8335 23.0979 23.3271L23.0833 23.0833V18.9167C23.0833 18.3641 23.3028 17.8342 23.6935 17.4435C24.0842 17.0528 24.6141 16.8333 25.1666 16.8333H39.6354C40.1483 16.8333 40.6431 17.0225 41.0252 17.3646C41.4073 17.7067 41.6498 18.1777 41.7062 18.6875C41.7895 19.4521 41.8333 20.2229 41.8333 21C41.8333 32.5062 32.5062 41.8333 21 41.8333C9.49371 41.8333 0.166626 32.5062 0.166626 21C0.166626 9.49375 9.49371 0.16667 21 0.16667Z" fill="#F8F8F8"/>
</svg>
