<svg width="41" height="41" viewBox="0 0 41 41" fill="none" xmlns="http://www.w3.org/2000/svg">
<path d="M13.9493 17.5882H27.2826M13.9493 30.9215H27.2826M13.9493 24.2549H20.6159M7.28259 36.5882V5.25488C7.28259 4.98967 7.38795 4.73531 7.57549 4.54778C7.76302 4.36024 8.01738 4.25488 8.28259 4.25488H27.7026C27.9677 4.25512 28.2219 4.36063 28.4093 4.54822L33.6559 9.79488C33.7492 9.88805 33.8231 9.99874 33.8735 10.1206C33.9238 10.2424 33.9496 10.373 33.9493 10.5049V36.5882C33.9493 36.7195 33.9234 36.8496 33.8731 36.9709C33.8229 37.0922 33.7492 37.2025 33.6564 37.2953C33.5635 37.3882 33.4533 37.4618 33.3319 37.5121C33.2106 37.5624 33.0806 37.5882 32.9493 37.5882H8.28259C8.15127 37.5882 8.02123 37.5624 7.89991 37.5121C7.77858 37.4618 7.66834 37.3882 7.57549 37.2953C7.48263 37.2025 7.40897 37.0922 7.35871 36.9709C7.30846 36.8496 7.28259 36.7195 7.28259 36.5882Z" stroke="#F8F8F8" stroke-width="2.5" stroke-linecap="round" stroke-linejoin="round"/>
<path d="M27.2826 4.25488V9.92155C27.2826 10.1868 27.3879 10.4411 27.5755 10.6287C27.763 10.8162 28.0174 10.9215 28.2826 10.9215H33.9493" stroke="#F8F8F8" stroke-width="2.5" stroke-linecap="round" stroke-linejoin="round"/>
</svg>
