<svg width="50" height="48" viewBox="0 0 50 48" fill="none" xmlns="http://www.w3.org/2000/svg">
<path d="M38.2812 0.0773926H11.7188C5.24666 0.0773926 0 5.09248 0 11.2789V36.669C0 42.8554 5.24666 47.8705 11.7188 47.8705H38.2812C44.7533 47.8705 50 42.8554 50 36.669V11.2789C50 5.09248 44.7533 0.0773926 38.2812 0.0773926Z" fill="url(#paint0_radial_126_137)"/>
<path d="M38.2812 0.0773926H11.7188C5.24666 0.0773926 0 5.09248 0 11.2789V36.669C0 42.8554 5.24666 47.8705 11.7188 47.8705H38.2812C44.7533 47.8705 50 42.8554 50 36.669V11.2789C50 5.09248 44.7533 0.0773926 38.2812 0.0773926Z" fill="url(#paint1_radial_126_137)"/>
<path d="M25.0018 5.30493C19.6975 5.30493 19.0316 5.32715 16.9484 5.41769C14.8691 5.5088 13.4498 5.82337 12.208 6.28506C10.9232 6.76187 9.83359 7.3998 8.74805 8.43781C7.66152 9.47563 6.99414 10.5172 6.49375 11.7447C6.00938 12.932 5.67988 14.2893 5.58633 16.2759C5.49316 18.2673 5.46875 18.9039 5.46875 23.9743C5.46875 29.0447 5.49219 29.679 5.58672 31.6703C5.68242 33.6578 6.01152 35.0145 6.49414 36.2015C6.99336 37.4296 7.66074 38.4711 8.74668 39.5088C9.83203 40.5473 10.9217 41.1867 12.2055 41.6635C13.4482 42.1252 14.8678 42.4398 16.9467 42.5309C19.0301 42.6215 19.6953 42.6437 24.9994 42.6437C30.3043 42.6437 30.968 42.6215 33.0512 42.5309C35.1305 42.4398 36.5514 42.1252 37.7941 41.6635C39.0783 41.1867 40.1664 40.5473 41.2516 39.5088C42.3381 38.4711 43.0053 37.4296 43.5059 36.2021C43.9859 35.0145 44.3156 33.6575 44.4133 31.6707C44.5068 29.6794 44.5312 29.0447 44.5312 23.9743C44.5312 18.9039 44.5068 18.2677 44.4133 16.2763C44.3156 14.2887 43.9859 12.9322 43.5059 11.7452C43.0053 10.5172 42.3381 9.47563 41.2516 8.43781C40.1652 7.39943 39.0787 6.7615 37.793 6.28525C36.5479 5.82337 35.1277 5.50861 33.0484 5.41769C30.965 5.32715 30.3018 5.30493 24.9957 5.30493H25.0018ZM23.2496 8.66931C23.7697 8.66856 24.35 8.66931 25.0018 8.66931C30.2168 8.66931 30.8348 8.68723 32.8941 8.77665C34.7984 8.85992 35.832 9.16404 36.5205 9.41962C37.432 9.75791 38.0818 10.1625 38.765 10.8161C39.4486 11.4695 39.8717 12.0917 40.2266 12.963C40.4939 13.6202 40.8125 14.6082 40.8992 16.4284C40.9928 18.3965 41.0131 18.9876 41.0131 23.97C41.0131 28.9524 40.9928 29.5437 40.8992 31.5116C40.8121 33.3319 40.4939 34.3198 40.2266 34.9772C39.8727 35.8485 39.4486 36.4688 38.765 37.1219C38.0814 37.7753 37.4324 38.1797 36.5205 38.5182C35.8328 38.7749 34.7984 39.0782 32.8941 39.1615C30.8352 39.2509 30.2168 39.2703 25.0018 39.2703C19.7865 39.2703 19.1684 39.2509 17.1096 39.1615C15.2053 39.0775 14.1717 38.7734 13.4826 38.5178C12.5713 38.1793 11.9201 37.7749 11.2365 37.1215C10.5529 36.4681 10.1299 35.8473 9.775 34.9757C9.50762 34.3183 9.18906 33.3304 9.10234 31.5101C9.00879 29.542 8.99004 28.951 8.99004 23.9653C8.99004 18.9799 9.00879 18.3918 9.10234 16.4237C9.18945 14.6035 9.50762 13.6155 9.775 12.9574C10.1291 12.0861 10.5529 11.4639 11.2367 10.8105C11.9203 10.1571 12.5713 9.75249 13.4828 9.41346C14.1713 9.15676 15.2053 8.85338 17.1096 8.76975C18.9113 8.6919 19.6096 8.66856 23.2496 8.66464V8.66931ZM35.4275 11.7691C34.1336 11.7691 33.0838 12.7717 33.0838 14.0087C33.0838 15.2455 34.1336 16.249 35.4275 16.249C36.7215 16.249 37.7713 15.2455 37.7713 14.0087C37.7713 12.7719 36.7215 11.7684 35.4275 11.7684V11.7691ZM25.0018 14.3867C19.4627 14.3867 14.9717 18.6795 14.9717 23.9743C14.9717 29.2691 19.4627 33.5598 25.0018 33.5598C30.541 33.5598 35.0305 29.2691 35.0305 23.9743C35.0305 18.6797 30.5406 14.3867 25.0014 14.3867H25.0018ZM25.0018 17.7511C28.5973 17.7511 31.5123 20.5371 31.5123 23.9743C31.5123 27.4111 28.5973 30.1975 25.0018 30.1975C21.4061 30.1975 18.4914 27.4111 18.4914 23.9743C18.4914 20.5371 21.4061 17.7511 25.0018 17.7511Z" fill="white"/>
<defs>
<radialGradient id="paint0_radial_126_137" cx="0" cy="0" r="1" gradientUnits="userSpaceOnUse" gradientTransform="translate(13.2812 51.5515) rotate(-90) scale(47.3665 46.0889)">
<stop stop-color="#FFDD55"/>
<stop offset="0.1" stop-color="#FFDD55"/>
<stop offset="0.5" stop-color="#FF543E"/>
<stop offset="1" stop-color="#C837AB"/>
</radialGradient>
<radialGradient id="paint1_radial_126_137" cx="0" cy="0" r="1" gradientUnits="userSpaceOnUse" gradientTransform="translate(-8.3752 3.52018) rotate(78.1728) scale(21.2116 91.1405)">
<stop stop-color="#3771C8"/>
<stop offset="0.128" stop-color="#3771C8"/>
<stop offset="1" stop-color="#6600FF" stop-opacity="0"/>
</radialGradient>
</defs>
</svg>
