<svg width="282" height="27" viewBox="0 0 282 27" fill="none" xmlns="http://www.w3.org/2000/svg">
<path d="M161 10L165.5 11L192.5 8.5L213 6L219 5" stroke="#000098" stroke-width="2"/>
<path d="M0.5 25.5L281 1" stroke="#000098"/>
<path d="M280.5 2L0.5 26.5" stroke="#000098"/>
<path d="M219.472 6.15631C219.681 6.15631 219.815 6.10874 220.006 6.06862C220.129 6.04255 220.365 6.09368 220.465 5.99382C220.487 5.9719 220.013 5.80852 219.946 5.79523C219.788 5.76357 219.669 5.71413 219.526 5.64048C219.414 5.58278 218.955 5.42064 219.312 5.41351C219.62 5.40734 219.929 5.41351 220.238 5.41351C220.523 5.41351 220.753 5.54529 221.06 5.55278C221.645 5.56703 222.248 5.57019 222.84 5.55278C222.986 5.54849 223.114 5.43709 223.258 5.41093C223.398 5.38543 223.599 5.32893 223.717 5.2536C223.906 5.13356 224.359 5.22781 224.578 5.22781" stroke="#000098" stroke-linecap="round"/>
</svg>
