<svg width="75" height="75" viewBox="0 0 75 75" fill="none" xmlns="http://www.w3.org/2000/svg">
<path d="M61.25 65.625L41.5625 45.9375C40 47.1875 38.2031 48.1771 36.1719 48.9062C34.1406 49.6354 31.9792 50 29.6875 50C24.0104 50 19.2063 48.0333 15.275 44.1C11.3438 40.1667 9.37708 35.3625 9.375 29.6875C9.375 24.0104 11.3417 19.2063 15.275 15.275C19.2083 11.3438 24.0125 9.37708 29.6875 9.375C35.3646 9.375 40.1698 11.3417 44.1031 15.275C48.0365 19.2083 50.0021 24.0125 50 29.6875C50 31.9792 49.6354 34.1406 48.9062 36.1719C48.1771 38.2031 47.1875 40 45.9375 41.5625L65.625 61.25L61.25 65.625ZM29.6875 43.75C33.5938 43.75 36.9146 42.3833 39.65 39.65C42.3854 36.9167 43.7521 33.5958 43.75 29.6875C43.75 25.7812 42.3833 22.4615 39.65 19.7281C36.9167 16.9948 33.5958 15.6271 29.6875 15.625C25.7812 15.625 22.4615 16.9927 19.7281 19.7281C16.9948 22.4635 15.6271 25.7833 15.625 29.6875C15.625 33.5938 16.9927 36.9146 19.7281 39.65C22.4635 42.3854 25.7833 43.7521 29.6875 43.75Z" fill="white"/>
</svg>
