<svg width="312" height="428" viewBox="0 0 312 428" fill="none" xmlns="http://www.w3.org/2000/svg">
<path d="M0 42.3243C0 29.0695 10.7452 18.3243 24 18.3243H144.5H216.75H252.875H259.781H263.234L263.361 18.3149C266.541 18.0781 269 15.4288 269 12.2399C269 10.386 269.844 8.63308 271.294 7.47719L274.637 4.81106C275.542 4.08861 276.529 3.47377 277.577 2.97887L278.487 2.54871C283.35 0.251897 288.85 -0.316834 294.08 0.936551L298.992 2.11405C304.33 3.39337 308.719 7.17658 310.77 12.2674C311.583 14.2826 312 16.435 312 18.6077V19.3058C312 21.7803 311.553 24.2345 310.681 26.5503L309.193 30.5028C308.08 33.4605 306.295 36.1193 303.979 38.2698L303.393 38.8132C301.49 40.5808 299.206 41.8882 296.718 42.6346L296 42.85C295.667 42.9499 295.327 43.0247 294.983 43.0738C291.55 43.5646 289 46.505 289 49.9732V69.5338V120.743V223.162V404C289 417.255 278.255 428 265 428H24C10.7452 428 0 417.255 0 404V42.3243Z" fill="#5968C8"/>
</svg>
