<svg width="55" height="55" viewBox="0 0 55 55" fill="none" xmlns="http://www.w3.org/2000/svg">
<path d="M50.7222 55L31.4722 35.75C29.9444 36.9722 28.1875 37.9398 26.2014 38.6528C24.2153 39.3657 22.1019 39.7222 19.8611 39.7222C14.3102 39.7222 9.61278 37.7993 5.76889 33.9533C1.925 30.1074 0.00203704 25.41 0 19.8611C0 14.3102 1.92296 9.61278 5.76889 5.76889C9.61481 1.925 14.3122 0.00203704 19.8611 0C25.412 0 30.1105 1.92296 33.9564 5.76889C37.8023 9.61481 39.7243 14.3122 39.7222 19.8611C39.7222 22.1019 39.3657 24.2153 38.6528 26.2014C37.9398 28.1875 36.9722 29.9444 35.75 31.4722L55 50.7222L50.7222 55ZM19.8611 33.6111C23.6806 33.6111 26.9276 32.2748 29.6022 29.6022C32.2769 26.9296 33.6131 23.6826 33.6111 19.8611C33.6111 16.0417 32.2748 12.7956 29.6022 10.1231C26.9296 7.45046 23.6826 6.11315 19.8611 6.11111C16.0417 6.11111 12.7956 7.44843 10.1231 10.1231C7.45046 12.7977 6.11315 16.0437 6.11111 19.8611C6.11111 23.6806 7.44843 26.9276 10.1231 29.6022C12.7977 32.2769 16.0437 33.6131 19.8611 33.6111Z" fill="white"/>
</svg>
