<svg width="42" height="36" viewBox="0 0 42 36" fill="none" xmlns="http://www.w3.org/2000/svg">
<path d="M1 29.4067C3.03038 30.4685 17.7278 38.4825 28.1788 32.3059C38.6298 26.1294 38.0533 15.488 38.0533 10.6118C39 8.73574 41 7.78197 41 2.70385C39.0355 4.42042 37.0828 5.00449 35.1421 4.45607C33.2407 1.71391 30.6247 0.501058 27.2941 0.817558C22.2982 1.2923 20.4704 5.92859 21.0083 11.9268C13.3052 15.6116 7.26474 9.25569 4.15177 4.45607C3.11165 8.23601 2.10874 12.7741 4.15177 17.7942C5.51379 21.1409 8.78789 23.9704 13.9741 26.2826C8.71821 28.9771 4.39349 30.0184 1 29.4067Z" fill="#2F88FF" stroke="black" stroke-linejoin="round"/>
</svg>
