<svg width="13" height="13" viewBox="0 0 13 13" fill="none" xmlns="http://www.w3.org/2000/svg">
<path d="M6.5 0.543701C5.21442 0.543701 3.95772 0.895176 2.8888 1.55368C1.81988 2.21218 0.986755 3.14814 0.494786 4.24318C0.00281638 5.33823 -0.125905 6.5432 0.124899 7.70569C0.375702 8.86819 0.994767 9.93602 1.90381 10.7741C2.81285 11.6122 3.97104 12.183 5.23191 12.4142C6.49279 12.6455 7.79972 12.5268 8.98744 12.0732C10.1752 11.6196 11.1903 10.8515 11.9046 9.866C12.6188 8.88048 13 7.72182 13 6.53655C12.9981 4.94769 12.3127 3.42441 11.0941 2.30091C9.87551 1.17742 8.22332 0.545464 6.5 0.543701ZM6.5 11.1977C5.50011 11.1977 4.52267 10.9243 3.69129 10.4121C2.8599 9.89994 2.21192 9.17198 1.82928 8.32027C1.44664 7.46857 1.34652 6.53138 1.54159 5.62721C1.73666 4.72305 2.21815 3.89252 2.92518 3.24065C3.63222 2.58878 4.53303 2.14486 5.51371 1.96501C6.49439 1.78516 7.5109 1.87746 8.43468 2.23025C9.35846 2.58304 10.148 3.18046 10.7035 3.94698C11.2591 4.71349 11.5556 5.61467 11.5556 6.53655C11.5541 7.77234 11.021 8.95715 10.0732 9.83099C9.12544 10.7048 7.84038 11.1963 6.5 11.1977ZM9.0031 8.26837C8.60886 8.75265 8.05936 9.11031 7.43242 9.2907C6.80548 9.47109 6.13288 9.46506 5.50987 9.27348C4.88685 9.08189 4.34499 8.71446 3.96102 8.22321C3.57706 7.73196 3.37045 7.14179 3.37045 6.53627C3.37045 5.93076 3.57706 5.34058 3.96102 4.84933C4.34499 4.35808 4.88685 3.99065 5.50987 3.79906C6.13288 3.60748 6.80548 3.60145 7.43242 3.78184C8.05936 3.96223 8.60886 4.31989 9.0031 4.80417C9.06215 4.8739 9.10554 4.95378 9.13072 5.03914C9.15591 5.1245 9.1624 5.21364 9.14981 5.30134C9.13722 5.38904 9.1058 5.47354 9.05738 5.54992C9.00897 5.6263 8.94453 5.69302 8.86784 5.74618C8.79115 5.79934 8.70373 5.83788 8.6107 5.85954C8.51768 5.88121 8.4209 5.88556 8.32602 5.87236C8.23115 5.85915 8.14007 5.82865 8.05813 5.78263C7.97618 5.73661 7.905 5.67599 7.84875 5.60433C7.63654 5.34345 7.34067 5.15075 7.00307 5.05352C6.66547 4.95629 6.30324 4.95946 5.9677 5.06258C5.63216 5.1657 5.34032 5.36354 5.13351 5.62808C4.9267 5.89262 4.81542 6.21045 4.81542 6.53655C4.81542 6.86264 4.9267 7.18047 5.13351 7.44501C5.34032 7.70955 5.63216 7.9074 5.9677 8.01052C6.30324 8.11364 6.66547 8.11681 7.00307 8.01958C7.34067 7.92235 7.63654 7.72964 7.84875 7.46877C7.90452 7.39605 7.97555 7.33439 8.05762 7.28743C8.1397 7.24047 8.23116 7.20916 8.3266 7.19537C8.42203 7.18158 8.51949 7.18558 8.61322 7.20713C8.70694 7.22868 8.79503 7.26735 8.87226 7.32085C8.94949 7.37434 9.01429 7.44158 9.06284 7.51857C9.11138 7.59557 9.14268 7.68076 9.15488 7.76911C9.16708 7.85746 9.15993 7.94717 9.13386 8.03292C9.10779 8.11868 9.06333 8.19874 9.0031 8.26837Z" fill="#575564"/>
</svg>
