<svg width="39" height="28" viewBox="0 0 39 28" fill="none" xmlns="http://www.w3.org/2000/svg">
<path d="M19.616 18.9955C22.3774 18.9955 24.616 16.8118 24.616 14.1181C24.616 11.4244 22.3774 9.24072 19.616 9.24072C16.8545 9.24072 14.616 11.4244 14.616 14.1181C14.616 16.8118 16.8545 18.9955 19.616 18.9955Z" fill="#F8F8F8"/>
<path d="M38.2909 13.7033C36.8207 9.99364 34.2684 6.78549 30.9494 4.4754C27.6304 2.16531 23.6903 0.854537 19.6159 0.705078C15.5416 0.854537 11.6014 2.16531 8.28243 4.4754C4.96344 6.78549 2.41112 9.99364 0.940923 13.7033C0.841632 13.9712 0.841632 14.2646 0.940923 14.5325C2.41112 18.2422 4.96344 21.4503 8.28243 23.7604C11.6014 26.0705 15.5416 27.3813 19.6159 27.5307C23.6903 27.3813 27.6304 26.0705 30.9494 23.7604C34.2684 21.4503 36.8207 18.2422 38.2909 14.5325C38.3902 14.2646 38.3902 13.9712 38.2909 13.7033ZM19.6159 22.0437C18.0089 22.0437 16.4381 21.5788 15.1019 20.7079C13.7658 19.837 12.7244 18.5992 12.1094 17.151C11.4944 15.7027 11.3335 14.1091 11.647 12.5717C11.9605 11.0342 12.7344 9.62198 13.8707 8.51354C15.007 7.4051 16.4547 6.65025 18.0308 6.34443C19.6069 6.03862 21.2406 6.19557 22.7252 6.79545C24.2099 7.39534 25.4788 8.4112 26.3716 9.71458C27.2644 11.018 27.7409 12.5503 27.7409 14.1179C27.7376 16.2189 26.8805 18.233 25.3575 19.7187C23.8345 21.2044 21.7698 22.0404 19.6159 22.0437Z" fill="#F8F8F8"/>
</svg>
